<svg data-v-fde0c5aa="" xmlns="http://www.w3.org/2000/svg" viewBox="0 0 300 300" class="iconAboveSlogan"><!----><defs data-v-fde0c5aa=""><linearGradient data-v-fde0c5aa="" gradientTransform="rotate(25)" id="c5cdfd99-ed9b-4779-9660-eb1e9f89b9bd" x1="0%" y1="0%" x2="100%" y2="0%"><stop data-v-fde0c5aa="" offset="0%" stop-color="#49247E" stop-opacity="1"></stop><stop data-v-fde0c5aa="" offset="100%" stop-color="#AA49C7" stop-opacity="1"></stop></linearGradient></defs><rect data-v-fde0c5aa="" fill="url(#c5cdfd99-ed9b-4779-9660-eb1e9f89b9bd)" x="0" y="0" width="300px" height="300px" class="logo-background-square"></rect><defs data-v-fde0c5aa=""><!----></defs><g data-v-fde0c5aa="" id="1151b310-a981-4834-b0b0-9df6338fa217" fill="#ffffff" transform="matrix(6.011560693641618,0,0,6.011560693641618,20,161.09148089874418)"><path d="M3.91 4.76L3.91 4.76L3.91 4.76Q3.70 5.01 3.35 5.11L3.35 5.11L3.35 5.11Q3.54 5.18 3.67 5.27L3.67 5.27L3.67 5.27Q3.79 5.36 3.91 5.49L3.91 5.49L3.91 5.49Q3.92 5.56 3.93 5.61L3.93 5.61L3.93 5.61Q3.93 5.67 3.93 5.74L3.93 5.74L3.93 9.38L3.93 9.38Q3.93 9.84 3.60 10.17L3.60 10.17L3.60 10.17Q3.28 10.50 2.83 10.50L2.83 10.50L0 10.50L0 0.70L2.83 0.70L2.83 0.70Q3.28 0.70 3.60 1.03L3.60 1.03L3.60 1.03Q3.93 1.36 3.93 1.82L3.93 1.82L3.93 4.48L3.93 4.48Q3.93 4.55 3.93 4.62L3.93 4.62L3.93 4.62Q3.92 4.69 3.91 4.76ZM2.95 9.38L2.95 5.74L2.95 5.74Q2.95 5.61 2.83 5.61L2.83 5.61L0.98 5.61L0.98 9.52L2.83 9.52L2.83 9.52Q2.95 9.52 2.95 9.38L2.95 9.38ZM2.95 4.48L2.95 1.82L2.95 1.82Q2.95 1.68 2.83 1.68L2.83 1.68L0.98 1.68L0.98 4.62L2.83 4.62L2.83 4.62Q2.95 4.62 2.95 4.48L2.95 4.48ZM5.78 0.70L7.84 0.70L7.84 0.70Q8.25 0.77 8.51 1.08L8.51 1.08L8.51 1.08Q8.78 1.39 8.78 1.81L8.78 1.81L8.78 9.39L8.78 9.39Q8.78 9.81 8.51 10.12L8.51 10.12L8.51 10.12Q8.25 10.43 7.84 10.50L7.84 10.50L5.78 10.50L5.78 10.50Q5.38 10.43 5.11 10.12L5.11 10.12L5.11 10.12Q4.84 9.81 4.84 9.39L4.84 9.39L4.84 1.81L4.84 1.81Q4.84 1.39 5.11 1.08L5.11 1.08L5.11 1.08Q5.38 0.77 5.78 0.70L5.78 0.70ZM7.80 9.39L7.80 1.81L7.80 1.81Q7.80 1.67 7.67 1.67L7.67 1.67L5.96 1.67L5.96 1.67Q5.82 1.67 5.82 1.81L5.82 1.81L5.82 9.39L5.82 9.39Q5.82 9.53 5.96 9.53L5.96 9.53L7.67 9.53L7.67 9.53Q7.80 9.53 7.80 9.39L7.80 9.39ZM10.67 9.51L13.22 9.51L13.22 10.50L9.69 10.50L9.69 9.51L9.69 0.70L10.67 0.70L10.67 9.51ZM17.67 1.68L15.12 1.68L15.12 4.62L17.16 4.62L17.16 5.60L15.12 5.60L15.12 9.52L17.67 9.52L17.67 10.50L14.14 10.50L14.14 4.62L15.12 4.62L14.14 1.68L14.14 0.70L17.67 0.70L17.67 1.68ZM22.30 0.70L22.30 1.68L20.93 1.68L20.93 10.50L19.95 10.50L19.95 1.68L18.58 1.68L18.58 0.70L22.30 0.70ZM24.15 0.70L26.21 0.70L26.21 0.70Q26.61 0.77 26.88 1.08L26.88 1.08L26.88 1.08Q27.15 1.39 27.15 1.81L27.15 1.81L27.15 9.39L27.15 9.39Q27.15 9.81 26.88 10.12L26.88 10.12L26.88 10.12Q26.61 10.43 26.21 10.50L26.21 10.50L24.15 10.50L24.15 10.50Q23.74 10.43 23.48 10.12L23.48 10.12L23.48 10.12Q23.21 9.81 23.21 9.39L23.21 9.39L23.21 1.81L23.21 1.81Q23.21 1.39 23.48 1.08L23.48 1.08L23.48 1.08Q23.74 0.77 24.15 0.70L24.15 0.70ZM26.17 9.39L26.17 1.81L26.17 1.81Q26.17 1.67 26.04 1.67L26.04 1.67L24.33 1.67L24.33 1.67Q24.19 1.67 24.19 1.81L24.19 1.81L24.19 9.39L24.19 9.39Q24.19 9.53 24.33 9.53L24.33 9.53L26.04 9.53L26.04 9.53Q26.17 9.53 26.17 9.39L26.17 9.39ZM32.05 0.70L33.53 0.70L33.53 10.50L32.55 10.50L32.55 3.53L31.46 9.79L30.13 9.79L29.04 3.53L29.04 10.50L28.06 10.50L28.06 0.70L29.55 0.70L30.80 7.95L32.05 0.70ZM37.79 10.50L36.54 2.67L35.83 7.20L36.54 7.20L36.54 8.18L35.67 8.18L35.29 10.50L34.30 10.50L34.68 8.18L34.30 8.18L34.30 7.20L34.83 7.20L35.87 0.70L37.21 0.70L38.78 10.50L37.79 10.50ZM42.27 0.70L43.25 0.70L43.25 10.50L42.27 10.50L42.27 10.50L42.24 10.50L40.31 4.03L40.31 10.50L39.33 10.50L39.33 0.70L40.31 0.70L40.31 0.71L42.27 7.18L42.27 0.70Z"></path></g><defs data-v-fde0c5aa=""><!----></defs><g data-v-fde0c5aa="" id="874720b8-8eb2-4bca-beac-dd9758a55acc" stroke="none" fill="#ffffff" transform="matrix(0.8753840739269815,0,0,0.8753840739269815,106.23079630365092,59.76116591993177)"><path d="M56.357 27.865l-3.593 3.592 5.233 5.232 3.592-3.592-5.232-5.232zm10.495 10.496l-3.591 3.591 5.232 5.232 3.592-3.592-5.233-5.231zM63.429 0l10.937 10.936c-3.548 4.094-3.376 10.294.515 14.185 3.89 3.89 10.09 4.061 14.185.514L100 36.571 82.532 54.04l-5.184-5.185-3.593 3.592 5.184 5.184L36.571 100 25.538 88.966c2.823-4.062 2.425-9.687-1.195-13.306-3.624-3.623-9.247-4.021-13.309-1.197L0 63.429l42.369-42.368 5.134 5.134 3.591-3.592-5.134-5.134L63.429 0z"></path></g><defs data-v-fde0c5aa=""><!----></defs><g data-v-fde0c5aa="" id="a4ec16a3-c2e0-4975-be0c-7ea6496a41ea" fill="#ffffff" transform="matrix(0.5176945571649431,0,0,0.5176945571649431,52.10655214149176,233.0221718001382)"><path d="M3.74 13.78L4.68 13.78L7.66 4.54L6.80 4.54L5.18 9.79C4.84 10.91 4.61 11.75 4.26 12.87L4.20 12.87C3.84 11.75 3.60 10.91 3.25 9.79L1.62 4.54L0.76 4.54ZM17.12 13.78L22.81 13.78L22.81 13.06L17.96 13.06L17.96 9.25L21.92 9.25L21.92 8.53L17.96 8.53L17.96 5.24L22.67 5.24L22.67 4.54L17.12 4.54ZM32.05 13.78L32.83 13.78L32.83 8.36C32.83 7.46 32.75 6.55 32.73 5.64L32.75 5.64L33.73 7.49L37.10 13.78L37.95 13.78L37.95 4.54L37.17 4.54L37.17 9.90C37.17 10.82 37.25 11.77 37.27 12.66L37.25 12.66L32.90 4.54L32.05 4.54ZM49.98 13.78L50.82 13.78L50.82 5.24L53.96 5.24L53.96 4.54L46.84 4.54L46.84 5.24L49.98 5.24ZM62.17 13.78L63.01 13.78L64.02 10.71L67.56 10.71L68.56 13.78L69.43 13.78L66.25 4.54L65.35 4.54ZM64.27 10.02L64.79 8.41C65.14 7.34 65.45 6.37 65.77 5.25L65.83 5.25C66.14 6.37 66.44 7.34 66.81 8.41L67.33 10.02ZM93.70 13.78L95.89 13.78C98.67 13.78 100.04 11.97 100.04 9.11C100.04 6.27 98.67 4.54 95.84 4.54L93.70 4.54ZM94.51 13.09L94.51 5.22L95.79 5.22C98.13 5.22 99.19 6.75 99.19 9.11C99.19 11.49 98.13 13.09 95.79 13.09ZM109.52 13.78L115.21 13.78L115.21 13.06L110.36 13.06L110.36 9.25L114.32 9.25L114.32 8.53L110.36 8.53L110.36 5.24L115.07 5.24L115.07 4.54L109.52 4.54ZM140.14 13.78L142.73 13.78C144.80 13.78 146.17 12.88 146.17 11.07C146.17 9.80 145.35 9.04 143.99 8.85L143.99 8.79C145.07 8.53 145.61 7.71 145.61 6.78C145.61 5.21 144.41 4.54 142.53 4.54L140.14 4.54ZM140.99 8.57L140.99 5.21L142.38 5.21C143.96 5.21 144.79 5.68 144.79 6.80C144.79 7.94 144.09 8.57 142.31 8.57ZM140.99 13.10L140.99 9.21L142.56 9.21C144.34 9.21 145.35 9.79 145.35 11.06C145.35 12.47 144.30 13.10 142.56 13.10ZM158.20 13.94C160.23 13.94 161.67 12.07 161.67 9.11C161.67 6.20 160.23 4.37 158.20 4.37C156.17 4.37 154.73 6.19 154.73 9.11C154.73 12.07 156.17 13.94 158.20 13.94ZM158.20 13.20C156.63 13.20 155.58 11.59 155.58 9.11C155.58 6.65 156.63 5.11 158.20 5.11C159.77 5.11 160.82 6.65 160.82 9.11C160.82 11.59 159.77 13.20 158.20 13.20ZM171.42 13.78L176.96 13.78L176.96 13.06L172.23 13.06L172.23 4.54L171.42 4.54ZM186.52 13.78L192.21 13.78L192.21 13.06L187.36 13.06L187.36 9.25L191.32 9.25L191.32 8.53L187.36 8.53L187.36 5.24L192.07 5.24L192.07 4.54L186.52 4.54ZM203.98 13.78L204.82 13.78L204.82 5.24L207.96 5.24L207.96 4.54L200.84 4.54L200.84 5.24L203.98 5.24ZM219.80 13.94C221.83 13.94 223.27 12.07 223.27 9.11C223.27 6.20 221.83 4.37 219.80 4.37C217.77 4.37 216.33 6.19 216.33 9.11C216.33 12.07 217.77 13.94 219.80 13.94ZM219.80 13.20C218.23 13.20 217.18 11.59 217.18 9.11C217.18 6.65 218.23 5.11 219.80 5.11C221.37 5.11 222.42 6.65 222.42 9.11C222.42 11.59 221.37 13.20 219.80 13.20ZM235.31 13.94C237.23 13.94 238.45 12.84 238.45 11.40C238.45 10.00 237.48 9.45 236.39 8.95L235.03 8.36C234.29 8.02 233.34 7.64 233.34 6.65C233.34 5.70 234.15 5.11 235.37 5.11C236.33 5.11 237.08 5.47 237.66 6.02L238.13 5.47C237.51 4.84 236.53 4.37 235.37 4.37C233.70 4.37 232.48 5.33 232.48 6.71C232.48 8.05 233.60 8.68 234.49 9.04L235.86 9.63C236.82 10.07 237.61 10.37 237.61 11.47C237.61 12.50 236.74 13.20 235.31 13.20C234.22 13.20 233.23 12.71 232.54 11.97L232.02 12.56C232.79 13.38 233.93 13.94 235.31 13.94ZM263.52 13.78L269.21 13.78L269.21 13.06L264.36 13.06L264.36 9.25L268.32 9.25L268.32 8.53L264.36 8.53L264.36 5.24L269.07 5.24L269.07 4.54L263.52 4.54ZM278.45 13.78L279.23 13.78L279.23 8.36C279.23 7.46 279.15 6.55 279.13 5.64L279.15 5.64L280.13 7.49L283.50 13.78L284.35 13.78L284.35 4.54L283.57 4.54L283.57 9.90C283.57 10.82 283.65 11.77 283.67 12.66L283.65 12.66L279.30 4.54L278.45 4.54ZM310.02 13.78L315.56 13.78L315.56 13.06L310.83 13.06L310.83 4.54L310.02 4.54ZM327.01 3.84L327.73 3.84L329.27 2.30L328.29 2.30ZM324.84 13.78L330.36 13.78L330.36 13.06L328.02 13.06L328.02 5.22L330.36 5.22L330.36 4.54L324.84 4.54L324.84 5.22L327.18 5.22L327.18 13.06L324.84 13.06ZM340.05 13.78L340.83 13.78L340.83 8.36C340.83 7.46 340.75 6.55 340.73 5.64L340.75 5.64L341.73 7.49L345.10 13.78L345.95 13.78L345.95 4.54L345.17 4.54L345.17 9.90C345.17 10.82 345.25 11.77 345.27 12.66L345.25 12.66L340.90 4.54L340.05 4.54ZM355.92 13.78L361.61 13.78L361.61 13.06L356.76 13.06L356.76 9.25L360.72 9.25L360.72 8.53L356.76 8.53L356.76 5.24L361.47 5.24L361.47 4.54L355.92 4.54ZM370.17 13.78L371.01 13.78L372.02 10.71L375.56 10.71L376.56 13.78L377.43 13.78L374.25 4.54L373.35 4.54ZM372.27 10.02L372.79 8.41C373.14 7.34 373.45 6.37 373.77 5.25L373.83 5.25C374.14 6.37 374.44 7.34 374.81 8.41L375.33 10.02Z"></path></g></svg>